<svg width="50" height="48" viewBox="0 0 50 48" fill="none" xmlns="http://www.w3.org/2000/svg">
<path fill-rule="evenodd" clip-rule="evenodd" d="M23.8871 3.36287C23.8871 3.36288 23.8871 3.36286 23.8871 3.36287C23.6291 3.01459 23.3437 2.6862 23.033 2.38103C22.2428 1.60484 21.3054 0.994501 20.2758 0.585909C19.2463 0.177317 18.1454 -0.0212783 17.038 0.00180428C15.9306 0.0248869 14.839 0.269181 13.8274 0.720319C12.8158 1.17146 11.9046 1.82033 11.1474 2.62877C10.3902 3.43721 9.80234 4.3889 9.41835 5.42787C9.18217 6.06691 9.02606 6.73102 8.95236 7.4051C7.85508 7.83032 6.83399 8.43752 5.9332 9.20383C4.71589 10.2394 3.75019 11.5384 3.10925 13.0025C2.46831 14.4666 2.16893 16.0573 2.23379 17.6542C2.28117 18.8208 2.52203 19.9683 2.94374 21.0507C2.0574 21.9717 1.34353 23.049 0.840417 24.2318C0.168687 25.8111 -0.107007 27.5305 0.0373159 29.2406C0.181639 30.9507 0.741608 32.5996 1.66851 34.0439C2.4032 35.1887 3.35079 36.1775 4.45643 36.9584C4.4268 38.0378 4.56327 39.1176 4.86296 40.1594C5.26098 41.5431 5.93844 42.8304 6.85349 43.942C7.76854 45.0536 8.90176 45.9658 10.1832 46.6222C11.4646 47.2787 12.867 47.6655 14.3037 47.7587C15.7404 47.8519 17.181 47.6496 18.5365 47.1643C19.892 46.679 21.1336 45.9209 22.1847 44.9369C22.8388 44.3245 23.4104 43.6328 23.8871 42.8793C23.8871 42.8793 23.8871 42.8793 23.8871 42.8793L23.8871 3.36287ZM8.04817 11.6899C8.43297 11.3626 8.84957 11.0773 9.29077 10.8378C9.47098 11.4078 9.71282 11.9586 10.0134 12.4803C10.4633 13.2613 11.4611 13.5297 12.2421 13.0798C13.0231 12.6299 13.2915 11.632 12.8416 10.851C12.4353 10.1457 12.2057 9.35249 12.1724 8.53917L12.1722 8.53303C12.1422 7.86121 12.2468 7.19018 12.4799 6.5594C12.7131 5.92862 13.07 5.35082 13.5297 4.86C13.9894 4.36917 14.5426 3.97522 15.1568 3.70133C15.771 3.42743 16.4337 3.27911 17.106 3.2651C17.7784 3.25108 18.4467 3.37166 19.0718 3.61972C19.6968 3.86779 20.266 4.23834 20.7457 4.70959C21.2255 5.18083 21.6062 5.74325 21.8654 6.36377C22.1202 6.97385 22.2526 7.62798 22.2551 8.28892L22.2551 17.1826C22.1574 18.8226 21.5797 20.3981 20.5936 21.713C19.5989 23.0392 18.2334 24.0407 16.6695 24.5908C15.8193 24.8899 15.3725 25.8217 15.6716 26.6719C15.9707 27.5222 16.9024 27.969 17.7527 27.6698C19.4632 27.0681 21.0031 26.0777 22.2551 24.7844V37.2552C22.2541 38.2489 22.0493 39.2317 21.6535 40.1431C21.2577 41.0545 20.6793 41.8751 19.9539 42.5541C19.2286 43.2332 18.3717 43.7564 17.4363 44.0913C16.5008 44.4263 15.5066 44.5659 14.5151 44.5016C13.5235 44.4372 12.5557 44.1703 11.6714 43.7172C10.787 43.2642 10.005 42.6347 9.37348 41.8675C8.74198 41.1004 8.27445 40.212 7.99976 39.2571C7.93136 39.0193 7.87529 38.7787 7.8316 38.5361C8.70999 38.7695 9.61881 38.8894 10.5359 38.889C11.4372 38.8886 12.1675 38.1576 12.1671 37.2562C12.1667 36.3549 11.4357 35.6246 10.5344 35.625C9.28367 35.6256 8.05227 35.3012 6.9601 34.6853C5.9287 34.1031 5.05517 33.2777 4.41549 32.281C3.77581 31.2842 3.38936 30.1463 3.28976 28.9661C3.19015 27.7859 3.38042 26.5993 3.844 25.5094C4.30757 24.4196 5.03043 23.4595 5.94967 22.7127L5.95122 22.7114C6.28074 22.443 6.63606 22.2039 7.01436 21.994C7.80246 21.5566 8.08678 20.5632 7.64941 19.7751C7.26295 19.0787 6.44232 18.7757 5.71283 19.0163C5.58895 18.5286 5.51565 18.0278 5.4951 17.5217C5.45034 16.4197 5.65695 15.3219 6.09928 14.3115C6.54161 13.3011 7.20807 12.4046 8.04817 11.6899Z" fill="#007BDD"/>
<path d="M26.1135 41.6853C26.1132 41.6853 26.1139 41.6853 26.1135 41.6853C31.1744 41.6853 36.1213 40.1826 40.327 37.3677C44.5328 34.5528 47.8081 30.5525 49.7376 25.8739C49.745 25.856 49.7521 25.8379 49.7589 25.8197C50.0804 24.9536 50.0804 24.001 49.7589 23.135C49.7521 23.1167 49.745 23.0986 49.7376 23.0807C47.8081 18.4021 44.5328 14.4018 40.327 11.5869C36.1213 8.77204 31.1744 7.26935 26.1135 7.26935C26.1132 7.26935 26.1139 7.26935 26.1135 7.26935L26.1124 10.5333C26.112 10.5333 26.1128 10.5333 26.1124 10.5333C30.5268 10.5333 34.843 11.8441 38.5116 14.2994C42.1696 16.7477 45.0207 20.2241 46.7056 24.29C46.7461 24.4116 46.7461 24.543 46.7056 24.6646C45.0207 28.7305 42.1696 32.2069 38.5116 34.6552C34.843 37.1105 30.528 38.4213 26.1135 38.4213C26.1132 38.4213 26.1139 38.4213 26.1135 38.4213V41.6853Z" fill="#007BDD"/>
<path d="M26.1135 32.7853C26.1132 32.7853 26.1139 32.7853 26.1135 32.7853C30.7019 32.7853 34.4215 29.0657 34.4215 24.4773C34.4215 19.8889 30.7019 16.1693 26.1135 16.1693C26.1132 16.1693 26.1139 16.1693 26.1135 16.1693L26.1124 19.4333C26.112 19.4333 26.1128 19.4333 26.1124 19.4333C28.8981 19.4333 31.1575 21.6916 31.1575 24.4773C31.1575 27.263 28.8993 29.5213 26.1135 29.5213C26.1132 29.5213 26.1139 29.5213 26.1135 29.5213V32.7853Z" fill="#007BDD"/>
</svg>
